<svg xmlns="http://www.w3.org/2000/svg" viewBox="0 0 512 512">
  <defs>
    <linearGradient id="shieldGrad" x1="0" y1="0" x2="0" y2="1">
      <stop offset="0%" stop-color="#3A3F7A"/>
      <stop offset="100%" stop-color="#1A1D4E"/>
    </linearGradient>
    <linearGradient id="fieldGrad" x1="0" y1="0" x2="0" y2="1">
      <stop offset="0%" stop-color="#2E8B57"/>
      <stop offset="100%" stop-color="#1B6B3A"/>
    </linearGradient>
  </defs>

  <!-- 배경 원 -->
  <circle cx="256" cy="256" r="248" fill="url(#shieldGrad)"/>
  <circle cx="256" cy="256" r="232" fill="none" stroke="rgba(255,255,255,0.15)" stroke-width="4"/>

  <!-- 방패 형태 -->
  <path d="M 256 56 L 420 120 L 420 280 Q 420 400 256 460 Q 92 400 92 280 L 92 120 Z" fill="url(#shieldGrad)" stroke="rgba(255,255,255,0.3)" stroke-width="3"/>

  <!-- 방패 내부 필드 -->
  <path d="M 256 80 L 396 138 L 396 272 Q 396 380 256 436 Q 116 380 116 272 L 116 138 Z" fill="url(#fieldGrad)"/>

  <!-- 필드 라인 - 가로 -->
  <line x1="116" y1="270" x2="396" y2="270" stroke="rgba(255,255,255,0.35)" stroke-width="2.5"/>

  <!-- 센터 서클 -->
  <circle cx="256" cy="270" r="45" fill="none" stroke="rgba(255,255,255,0.35)" stroke-width="2.5"/>
  <circle cx="256" cy="270" r="4" fill="rgba(255,255,255,0.5)"/>

  <!-- 축구공 -->
  <circle cx="256" cy="210" r="52" fill="white"/>
  <circle cx="256" cy="210" r="52" fill="none" stroke="#333" stroke-width="2"/>
  <!-- 오각형 패턴 -->
  <path d="M 256 170 L 270 182 L 265 198 L 247 198 L 242 182 Z" fill="#2D336B"/>
  <path d="M 282 200 L 296 212 L 291 228 L 273 228 L 268 212 Z" fill="#2D336B"/>
  <path d="M 230 200 L 244 212 L 239 228 L 221 228 L 216 212 Z" fill="#2D336B"/>
  <path d="M 256 236 L 270 248 L 265 264 L 247 264 L 242 248 Z" fill="#2D336B"/>
  <!-- 축구공 선 -->
  <line x1="256" y1="170" x2="256" y2="158" stroke="#333" stroke-width="1.5"/>
  <line x1="242" y1="182" x2="228" y2="174" stroke="#333" stroke-width="1.5"/>
  <line x1="270" y1="182" x2="284" y2="174" stroke="#333" stroke-width="1.5"/>
  <line x1="268" y1="212" x2="282" y2="200" stroke="#333" stroke-width="1.5"/>
  <line x1="244" y1="212" x2="230" y2="200" stroke="#333" stroke-width="1.5"/>
  <line x1="296" y1="212" x2="308" y2="210" stroke="#333" stroke-width="1.5"/>
  <line x1="216" y1="212" x2="204" y2="210" stroke="#333" stroke-width="1.5"/>
  <line x1="291" y1="228" x2="296" y2="242" stroke="#333" stroke-width="1.5"/>
  <line x1="221" y1="228" x2="216" y2="242" stroke="#333" stroke-width="1.5"/>
  <line x1="273" y1="228" x2="270" y2="248" stroke="#333" stroke-width="1.5"/>
  <line x1="239" y1="228" x2="242" y2="248" stroke="#333" stroke-width="1.5"/>
  <line x1="265" y1="264" x2="270" y2="262" stroke="#333" stroke-width="1.5"/>
  <line x1="247" y1="264" x2="242" y2="262" stroke="#333" stroke-width="1.5"/>

  <!-- 상단 별 -->
  <polygon points="256,72 262,88 280,88 266,98 271,114 256,104 241,114 246,98 232,88 250,88" fill="#FFD700"/>

  <!-- 하단 텍스트: 우리들의 리그 -->
  <text x="256" y="365" text-anchor="middle" font-family="'Noto Sans KR', sans-serif" font-weight="900" font-size="36" fill="white" letter-spacing="2">우리들의</text>
  <text x="256" y="410" text-anchor="middle" font-family="'Noto Sans KR', sans-serif" font-weight="900" font-size="44" fill="#FFD700" letter-spacing="4">LEAGUE</text>
</svg>
